<?xml version="1.0" encoding="UTF-8" standalone="no"?>
<!DOCTYPE svg PUBLIC "-//W3C//DTD SVG 1.1//EN" "http://www.w3.org/Graphics/SVG/1.1/DTD/svg11.dtd">
<svg width="100%" height="100%" viewBox="0 0 2080 2080" version="1.1" xmlns="http://www.w3.org/2000/svg" xmlns:xlink="http://www.w3.org/1999/xlink" xml:space="preserve" xmlns:serif="http://www.serif.com/" style="fill-rule:evenodd;clip-rule:evenodd;stroke-linejoin:round;stroke-miterlimit:2;">
    <g transform="matrix(53.7809,0,0,53.7809,-36257.1,-62141)">
        <g transform="matrix(12,0,0,12,676.466,1177.69)">
            <path d="M0.344,-0.483C0.279,-0.483 0.232,-0.458 0.199,-0.422L0.199,-0.483L0.174,-0.483L0.01,-0.445L0.01,-0.413C0.047,-0.41 0.057,-0.39 0.057,-0.351L0.057,0.132C0.057,0.171 0.047,0.191 0.01,0.194L0.01,0.226L0.246,0.226L0.246,0.194C0.209,0.191 0.199,0.171 0.199,0.132L0.199,-0.052C0.232,-0.016 0.279,0.01 0.344,0.01C0.477,0.01 0.559,-0.084 0.559,-0.237C0.559,-0.39 0.477,-0.483 0.344,-0.483ZM0.312,-0.031C0.237,-0.031 0.198,-0.113 0.198,-0.237C0.198,-0.361 0.237,-0.443 0.312,-0.443C0.389,-0.443 0.419,-0.353 0.419,-0.237C0.419,-0.121 0.389,-0.031 0.312,-0.031Z" style="fill-rule:nonzero;"/>
        </g>
        <g transform="matrix(12,0,0,12,683.414,1177.69)">
            <path d="M0.502,-0.056C0.485,-0.04 0.452,-0.042 0.452,-0.081L0.452,-0.305C0.452,-0.447 0.333,-0.483 0.24,-0.483C0.174,-0.483 0.097,-0.47 0.07,-0.411C0.051,-0.37 0.066,-0.337 0.1,-0.325C0.135,-0.314 0.18,-0.332 0.175,-0.395C0.172,-0.441 0.215,-0.454 0.244,-0.451C0.295,-0.445 0.31,-0.406 0.31,-0.329L0.31,-0.288C0.285,-0.285 0.249,-0.282 0.203,-0.278C0.106,-0.269 0.008,-0.234 0.011,-0.115C0.014,-0.023 0.1,0.01 0.184,0.01C0.236,0.01 0.292,-0.012 0.317,-0.069C0.321,-0.01 0.385,0.01 0.427,0.01C0.467,0.01 0.502,-0.014 0.514,-0.034L0.502,-0.056ZM0.229,-0.042C0.185,-0.041 0.149,-0.068 0.151,-0.134C0.153,-0.198 0.183,-0.236 0.255,-0.245C0.278,-0.248 0.296,-0.251 0.31,-0.252L0.31,-0.174C0.31,-0.106 0.285,-0.044 0.229,-0.042ZM0.347,-0.666C0.331,-0.695 0.299,-0.701 0.269,-0.68C0.224,-0.648 0.188,-0.618 0.159,-0.593C0.146,-0.583 0.14,-0.571 0.147,-0.559C0.153,-0.547 0.166,-0.545 0.182,-0.549C0.219,-0.56 0.264,-0.573 0.316,-0.593C0.35,-0.606 0.363,-0.636 0.347,-0.666Z" style="fill-rule:nonzero;"/>
        </g>
        <g transform="matrix(12,0,0,12,689.582,1177.69)">
            <path d="M0.421,-0.143C0.405,-0.093 0.374,-0.052 0.29,-0.052L0.183,-0.052L0.429,-0.423L0.429,-0.474L0.055,-0.474L0.035,-0.331L0.06,-0.331C0.076,-0.381 0.108,-0.423 0.191,-0.423L0.27,-0.423L0.02,-0.052L0.02,0L0.427,0L0.446,-0.143L0.421,-0.143Z" style="fill-rule:nonzero;"/>
        </g>
        <g transform="matrix(12,0,0,12,695.294,1177.69)">
            <path d="M0.264,-0.483C0.125,-0.483 0.005,-0.398 0.005,-0.237C0.005,-0.076 0.125,0.01 0.264,0.01C0.403,0.01 0.523,-0.076 0.523,-0.237C0.523,-0.398 0.403,-0.483 0.264,-0.483ZM0.264,-0.031C0.191,-0.031 0.15,-0.118 0.15,-0.237C0.15,-0.356 0.191,-0.442 0.264,-0.442C0.337,-0.442 0.377,-0.356 0.377,-0.237C0.377,-0.118 0.337,-0.031 0.264,-0.031Z" style="fill-rule:nonzero;"/>
        </g>
        <g transform="matrix(12,0,0,12,701.93,1177.69)">
            <path d="M0.429,-0.42C0.411,-0.463 0.37,-0.485 0.316,-0.483C0.261,-0.481 0.225,-0.458 0.203,-0.413L0.203,-0.483L0.179,-0.483L0.02,-0.445L0.02,-0.413C0.058,-0.41 0.068,-0.39 0.068,-0.351L0.068,-0.095C0.068,-0.056 0.058,-0.035 0.02,-0.032L0.02,0L0.257,0L0.257,-0.032C0.219,-0.035 0.209,-0.056 0.209,-0.095L0.209,-0.304C0.209,-0.376 0.23,-0.42 0.267,-0.423C0.285,-0.424 0.297,-0.413 0.301,-0.383C0.308,-0.333 0.359,-0.312 0.394,-0.327C0.439,-0.346 0.44,-0.393 0.429,-0.42Z" style="fill-rule:nonzero;"/>
        </g>
        <g transform="matrix(12,0,0,12,707.33,1177.69)">
            <path d="M0.209,-0.095L0.209,-0.483L0.185,-0.483L0.02,-0.445L0.02,-0.413C0.058,-0.41 0.068,-0.39 0.068,-0.351L0.068,-0.095C0.068,-0.056 0.058,-0.035 0.02,-0.032L0.02,0L0.257,0L0.257,-0.032C0.219,-0.035 0.209,-0.056 0.209,-0.095ZM0.133,-0.541C0.181,-0.541 0.221,-0.572 0.221,-0.626C0.221,-0.679 0.181,-0.711 0.133,-0.711C0.085,-0.711 0.045,-0.679 0.045,-0.626C0.045,-0.572 0.085,-0.541 0.133,-0.541Z" style="fill-rule:nonzero;"/>
        </g>
    </g>
</svg>
