<?xml version="1.0" encoding="UTF-8" standalone="no"?>
<!DOCTYPE svg PUBLIC "-//W3C//DTD SVG 1.1//EN" "http://www.w3.org/Graphics/SVG/1.1/DTD/svg11.dtd">
<svg width="100%" height="100%" viewBox="0 0 3292 1184" version="1.1" xmlns="http://www.w3.org/2000/svg" xmlns:xlink="http://www.w3.org/1999/xlink" xml:space="preserve" xmlns:serif="http://www.serif.com/" style="fill-rule:evenodd;clip-rule:evenodd;stroke-linejoin:round;stroke-miterlimit:2;">
    <g transform="matrix(4.16667,0,0,4.16667,0,0)">
        <path d="M282.298,192.444L242.115,192.444L242.115,171.589L282.298,171.589C289.928,171.589 293.489,175.658 293.489,181.762C293.489,187.866 290.437,192.444 282.298,192.444ZM314.089,179.473C314.089,164.213 306.714,152.26 285.096,152.26L221.515,152.26L221.515,244.071L242.115,244.071L242.115,211.772L278.992,211.772C289.674,211.772 292.471,214.824 292.471,225.505L292.471,244.071L313.072,244.071L313.072,222.2C313.072,211.289 309.202,204.89 300.606,202.712C309.548,199.69 314.089,191.042 314.089,179.473ZM536.876,215.586C536.876,233.389 527.212,244.071 505.849,244.071L443.794,244.071L443.794,224.743L505.086,224.743C512.969,224.743 516.276,221.436 516.276,215.586C516.276,209.992 512.969,206.94 505.086,206.94L467.955,206.94C445.828,206.94 438.707,192.952 438.707,179.473C438.707,165.994 445.828,152.26 467.955,152.26L528.484,152.26L528.484,171.589L468.972,171.589C462.36,171.589 459.308,174.386 459.308,179.727C459.308,184.814 462.36,187.611 468.972,187.611L505.849,187.611C527.212,187.611 536.876,199.31 536.876,215.586ZM402.085,152.26L422.685,152.26L422.685,244.071L364.954,244.071C338.504,244.071 331.129,236.696 331.129,210.245L331.129,152.26L351.729,152.26L351.729,210.245C351.729,221.945 354.272,224.743 364.954,224.743L402.085,224.743L402.085,152.26ZM402.085,82.067L351.729,82.067L351.729,73.929C351.729,63.502 353.001,59.433 364.954,59.433L402.085,59.433L402.085,82.067ZM331.129,73.929L331.129,131.914L351.729,131.914L351.729,101.141L402.085,101.141L402.085,131.914L422.685,131.914L422.685,40.104L364.954,40.104C339.013,40.104 331.129,47.225 331.129,73.929ZM641.657,215.586C641.657,233.389 631.993,244.071 610.63,244.071L553.153,244.071L553.153,224.743L609.867,224.743C617.751,224.743 621.057,221.436 621.057,215.586C621.057,209.992 617.751,206.94 609.867,206.94L575.279,206.94C553.153,206.94 546.032,192.952 546.032,179.473C546.032,165.994 553.153,152.26 575.279,152.26L630.721,152.26L630.721,171.589L576.296,171.589C569.684,171.589 566.632,174.386 566.632,179.727C566.632,184.814 569.684,187.611 576.296,187.611L610.63,187.611C631.993,187.611 641.657,199.31 641.657,215.586ZM789.674,40.104L789.674,131.914L782.807,131.914C770.091,131.914 764.75,128.863 755.34,117.163L717.954,70.672L717.954,131.914L698.117,131.914L698.117,40.104L704.984,40.104C717.7,40.104 723.041,43.156 732.45,54.855L769.836,101.347L769.836,40.104L789.674,40.104ZM769.073,171.589L769.073,194.224L718.717,194.224L718.717,186.085C718.717,175.658 719.989,171.589 731.942,171.589L769.073,171.589ZM731.942,152.26C706.001,152.26 698.117,159.381 698.117,186.085L698.117,244.071L718.717,244.071L718.717,213.298L769.073,213.298L769.073,244.071L789.674,244.071L789.674,152.26L731.942,152.26ZM658.443,152.26L679.043,152.26L679.043,244.071L658.443,244.071L658.443,152.26ZM658.443,40.104L679.043,40.104L679.043,131.914L658.443,131.914L658.443,40.104ZM241.098,131.914L221.515,131.914L221.515,40.104L228.636,40.104C236.012,40.104 240.335,41.63 246.439,47.479L267.294,67.571L288.148,47.479C294.252,41.63 298.575,40.104 305.951,40.104L313.072,40.104L313.072,131.914L293.489,131.914L293.489,67.887L267.294,92.241L241.098,67.887L241.098,131.914ZM461.851,59.433L496.947,59.433C507.629,59.433 510.172,62.23 510.172,73.929L510.172,98.09C510.172,109.788 507.629,112.586 496.947,112.586L461.851,112.586L461.851,59.433ZM530.773,98.09L530.773,73.929C530.773,47.479 523.396,40.104 496.947,40.104L441.251,40.104L441.251,131.914L496.947,131.914C523.396,131.914 530.773,124.285 530.773,98.09ZM19.837,20.013L161.75,20.013L161.75,264.162L19.837,264.162L19.837,20.013ZM0,283.999L181.587,283.999L181.587,0.176L0,0.176L0,283.999ZM121.312,152.26L141.912,152.26L141.912,244.071L76.042,244.071C49.592,244.071 39.674,234.153 39.674,207.703L39.674,152.26L60.274,152.26L60.274,208.211C60.274,219.911 64.852,224.743 75.533,224.743L121.312,224.743L121.312,152.26ZM546.286,98.09L546.286,73.929C546.286,47.479 553.661,40.104 580.111,40.104L626.906,40.104L626.906,59.433L579.094,59.433C568.412,59.433 566.886,61.213 566.886,72.912L566.886,75.964L616.988,75.964L616.988,95.038L566.886,95.038L566.886,99.107C566.886,110.806 568.412,112.586 579.094,112.586L630.213,112.586L630.213,131.914L580.111,131.914C553.661,131.914 546.286,124.285 546.286,98.09ZM111.139,80.287L60.274,80.287L60.274,59.433L111.139,59.433C118.769,59.433 122.329,63.502 122.329,69.606C122.329,75.709 119.278,80.287 111.139,80.287ZM142.929,67.317C142.929,52.057 135.554,40.104 113.937,40.104L39.674,40.104L39.674,131.914L60.274,131.914L60.274,99.616L107.833,99.616C118.515,99.616 121.312,102.667 121.312,113.349L121.312,131.914L141.912,131.914L141.912,110.042C141.912,99.133 138.042,92.733 129.446,90.556C138.389,87.534 142.929,78.887 142.929,67.317Z" style="fill:white;fill-rule:nonzero;"/>
    </g>
</svg>
