<?xml version="1.0" encoding="UTF-8" standalone="no"?>
<!DOCTYPE svg PUBLIC "-//W3C//DTD SVG 1.1//EN" "http://www.w3.org/Graphics/SVG/1.1/DTD/svg11.dtd">
<svg width="100%" height="100%" viewBox="0 0 2080 2080" version="1.1" xmlns="http://www.w3.org/2000/svg" xmlns:xlink="http://www.w3.org/1999/xlink" xml:space="preserve" xmlns:serif="http://www.serif.com/" style="fill-rule:evenodd;clip-rule:evenodd;stroke-linejoin:round;stroke-miterlimit:2;">
    <g transform="matrix(4.0628,0,0,4.0628,-0.000160695,0.001161)">
        <path d="M507.399,370.471C506.023,368.167 497.511,349.671 456.551,311.655C413.671,271.847 419.431,278.311 471.079,209.479C502.535,167.559 515.111,141.959 511.175,131.015C507.431,120.583 484.295,123.335 484.295,123.335L407.367,123.783C407.367,123.783 401.671,123.015 397.415,125.543C393.287,128.039 390.631,133.799 390.631,133.799C390.631,133.799 378.439,166.247 362.183,193.831C327.911,252.039 314.183,255.111 308.583,251.495C295.559,243.079 298.823,217.639 298.823,199.591C298.823,143.175 307.367,119.655 282.151,113.575C273.767,111.559 267.623,110.215 246.215,109.991C218.759,109.703 195.495,110.087 182.343,116.519C173.575,120.807 166.823,130.375 170.951,130.919C176.039,131.591 187.559,134.023 193.671,142.343C201.575,153.063 201.287,177.191 201.287,177.191C201.287,177.191 205.831,243.591 190.695,251.847C180.295,257.511 166.055,245.959 135.495,193.127C119.847,166.087 108.007,136.167 108.007,136.167C108.007,136.167 105.735,130.599 101.671,127.623C96.743,124.007 89.831,122.855 89.831,122.855L16.679,123.303C16.679,123.303 5.703,123.623 1.671,128.391C-1.913,132.647 1.383,141.415 1.383,141.415C1.383,141.415 58.663,275.399 123.495,342.951C182.983,404.871 250.503,400.807 250.503,400.807L281.095,400.807C281.095,400.807 290.343,399.783 295.047,394.695C299.399,390.023 299.239,381.255 299.239,381.255C299.239,381.255 298.631,340.199 317.703,334.151C336.487,328.199 360.615,373.831 386.183,391.399C405.511,404.679 420.199,401.767 420.199,401.767L488.583,400.807C488.583,400.807 524.359,398.599 507.399,370.471Z" style="fill:rgb(0,139,237);fill-rule:nonzero;"/>
    </g>
</svg>
